<?xml version="1.0" standalone="no"?><!DOCTYPE svg PUBLIC "-//W3C//DTD SVG 1.1//EN" "http://www.w3.org/Graphics/SVG/1.1/DTD/svg11.dtd"><svg t="1763809870440" class="icon" viewBox="0 0 1024 1024" version="1.1" xmlns="http://www.w3.org/2000/svg" p-id="4744" xmlns:xlink="http://www.w3.org/1999/xlink" width="200" height="200"><path d="M102.4 243.2c0-21.1968 12.288-38.4 27.4432-38.4h457.1136c15.1552 0 27.4432 17.2032 27.4432 38.4s-12.288 38.4-27.4432 38.4H129.8432C114.688 281.6 102.4 264.3968 102.4 243.2zM102.4 499.2c0-21.1968 12.288-38.4 27.4432-38.4h457.1136c15.1552 0 27.4432 17.2032 27.4432 38.4s-12.288 38.4-27.4432 38.4H129.8432C114.688 537.6 102.4 520.3968 102.4 499.2zM102.4 755.2c0-21.1968 12.288-38.4 27.4432-38.4h457.1136c15.1552 0 27.4432 17.2032 27.4432 38.4s-12.288 38.4-27.4432 38.4H129.8432c-15.1552 0-27.4432-17.2032-27.4432-38.4z" fill="#2c2c2c" p-id="4745"></path><path d="M793.6 237.7216c0-18.176-17.2032-32.9216-38.4-32.9216s-38.4 14.7456-38.4 32.9216v548.5568c0 18.176 17.2032 32.9216 38.4 32.9216a44.544 44.544 0 0 0 6.8608-0.512 38.2464 38.2464 0 0 0 23.7568-11.1104l162.9184-162.9184a38.4 38.4 0 0 0-54.272-54.272L793.6 691.2V237.7216z" fill="#2c2c2c" p-id="4746"></path></svg>