<?xml version="1.0" standalone="no"?><!DOCTYPE svg PUBLIC "-//W3C//DTD SVG 1.1//EN" "http://www.w3.org/Graphics/SVG/1.1/DTD/svg11.dtd"><svg t="1764260891037" class="icon" viewBox="0 0 1024 1024" version="1.1" xmlns="http://www.w3.org/2000/svg" p-id="4846" xmlns:xlink="http://www.w3.org/1999/xlink" width="200" height="200"><path d="M785.7 163.4c-10.8-21.7-33-35.4-57.2-35.4H295.6c-24.2 0-46.4 13.7-57.2 35.4L128 384v448c0 35.3 28.7 64 64 64h640c35.3 0 64-28.7 64-64V384L785.7 163.4zM728.4 192l96 192H544V192h184.4z m-432.8 0H480v192H199.6l96-192zM832 832H192V448h640v384z" p-id="4847"></path><path d="M512 704h192v64H512zM320 725.3l42.7 42.7 85.3-85.3 42.7-42.7-42.7-42.7-85.3-85.3-42.7 42.7 85.3 85.3z" p-id="4848"></path></svg>
