<svg t="1777302056999" class="icon" viewBox="0 0 1024 1024" version="1.1" xmlns="http://www.w3.org/2000/svg" p-id="3788" width="200" height="200"><path d="M810.666667 601.6V341.333333c0-72.533333-55.466667-128-128-128h-128c-25.6 0-42.666667 17.066667-42.666667 42.666667s17.066667 42.666667 42.666667 42.666667h128c25.6 0 42.666667 17.066667 42.666666 42.666666v260.266667c-72.533333 17.066667-128 85.333333-128 166.4 0 93.866667 76.8 170.666667 170.666667 170.666667s170.666667-76.8 170.666667-170.666667c0-81.066667-55.466667-145.066667-128-166.4zM768 853.333333c-46.933333 0-85.333333-38.4-85.333333-85.333333s38.4-85.333333 85.333333-85.333333 85.333333 38.4 85.333333 85.333333-38.4 85.333333-85.333333 85.333333zM256 85.333333C162.133333 85.333333 85.333333 162.133333 85.333333 256c0 81.066667 55.466667 145.066667 128 166.4V896c0 25.6 17.066667 42.666667 42.666667 42.666667s42.666667-17.066667 42.666667-42.666667V422.4c72.533333-17.066667 128-85.333333 128-166.4 0-93.866667-76.8-170.666667-170.666667-170.666667z m0 256c-46.933333 0-85.333333-38.4-85.333333-85.333333s38.4-85.333333 85.333333-85.333333 85.333333 38.4 85.333333 85.333333-38.4 85.333333-85.333333 85.333333z" p-id="3789"></path></svg>
