<?xml version="1.0" standalone="no"?><!DOCTYPE svg PUBLIC "-//W3C//DTD SVG 1.1//EN" "http://www.w3.org/Graphics/SVG/1.1/DTD/svg11.dtd"><svg t="1764507211260" class="icon" viewBox="0 0 1305 1024" version="1.1" xmlns="http://www.w3.org/2000/svg" p-id="6174" xmlns:xlink="http://www.w3.org/1999/xlink" width="254.8828125" height="200"><path d="M960.79541094 911.1587h-18.58508625v-101.41491375h18.58508625a192.35181656 192.35181656 0 1 0 0-384.70363313h-76.481835l-0.45889125-50.24856656a242.21797312 242.21797312 0 0 0-484.51242844 0l-0.45889125 50.24856656h-73.42256156a192.35181656 192.35181656 0 1 0 0 384.70363313h28.4512425v101.41491375h-28.4512425a293.8432125 293.8432125 0 0 1-23.47992375-586.61567906 343.78585125 343.78585125 0 0 1 679.388145 0 293.76673031 293.76673031 0 0 1-20.650095 586.84512468z m0 0" p-id="6175"></path><path d="M590.62332687 486.0726575H692.03824062v432.19885313H590.62332687z" p-id="6176"></path><path d="M641.10133812 990.39388156l-226.99808718-187.22753344 64.55066906-78.24091781 162.98279156 134.14913906 164.58891-134.83747593 64.24474219 78.47036343z m0 0" p-id="6177"></path></svg>