<svg t="1778990152785" class="icon" viewBox="0 0 1024 1024" version="1.1" xmlns="http://www.w3.org/2000/svg" p-id="6367" width="200" height="200"><path d="M338.842 297.09c16.989-23.36 25.483-50.967 25.483-82.821 2.124-42.472-12.211-78.574-43.003-108.304S254.96 62.431 214.611 64.554c-31.854 0-59.992 8.494-84.414 25.483s-42.472 39.287-54.152 66.894-14.865 56.276-9.556 86.006 18.582 55.214 39.818 76.45c21.236 21.236 46.72 35.04 76.45 41.41v302.615c-29.731 6.371-55.214 20.174-76.45 41.411-21.236 21.236-34.509 46.72-39.818 76.45-5.309 29.731-2.124 58.399 9.556 86.006s29.731 49.905 54.152 66.894 52.029 25.483 82.821 25.483 58.93-8.494 84.414-25.483c25.483-16.989 44.596-39.287 57.338-66.894 6.371-19.113 9.556-39.287 9.556-60.523 0-29.731-8.494-57.338-25.483-82.821-21.236-33.978-52.029-55.214-92.377-63.708v-299.43l25.483-6.371c27.606-12.74 49.904-31.853 66.893-57.336z m-44.596 471.443c8.494 14.865 12.211 30.261 11.149 46.189-1.062 15.927-6.371 31.323-15.927 46.189-9.556 14.865-22.829 25.483-39.818 31.854s-33.978 7.964-50.967 4.778-32.385-11.149-46.189-23.891-21.767-27.607-23.891-44.596c-6.371-27.607-0.531-52.559 17.52-74.857s40.88-33.447 68.487-33.447c16.989 0 32.385 4.247 46.189 12.742 13.804 8.494 24.953 20.173 33.447 35.039zM166.829 287.534c-14.865-10.618-26.014-24.422-33.447-41.411-7.433-16.989-9.556-33.978-6.371-50.967 3.185-16.989 11.149-31.854 23.891-44.596s28.138-21.236 46.189-25.483 35.571-2.655 52.559 4.778c16.989 7.433 30.262 18.051 39.818 31.854 9.556 13.803 14.865 29.2 15.927 46.189 1.062 16.989-2.655 32.916-11.149 47.781-8.494 14.865-19.643 26.545-33.447 35.04-13.804 8.494-29.2 12.742-46.189 12.742s-32.915-5.309-47.781-15.927z m614.787 44.596c2.124-19.113-1.062-38.225-9.556-57.338-10.618-27.607-28.669-49.905-54.152-66.894s-53.09-25.483-82.821-25.483h-111.49l76.45-76.45-44.596-41.411-127.417 127.417v41.411l127.417 127.417 44.596-41.41-76.45-76.45h111.49c23.36 0 44.065 8.494 62.116 25.483 18.051 16.989 27.076 38.225 27.076 63.708v89.192h57.338V332.13z m0 449.145H960v-60.523H781.616V542.368h-60.523v178.384H542.709v60.523h178.384v178.384h60.523V781.275z" p-id="6368"></path></svg>
