<?xml version="1.0" standalone="no"?><!DOCTYPE svg PUBLIC "-//W3C//DTD SVG 1.1//EN" "http://www.w3.org/Graphics/SVG/1.1/DTD/svg11.dtd">
<svg t="1764509645653" class="icon" viewBox="0 0 1024 1024" version="1.1"
    xmlns="http://www.w3.org/2000/svg" p-id="19236"
    xmlns:xlink="http://www.w3.org/1999/xlink" width="200" height="200">
    <path d="M234.666667 192a64 64 0 1 0 0 128 64 64 0 0 0 0-128zM85.333333 256a149.333333 149.333333 0 1 1 199.125334 140.8A85.333333 85.333333 0 0 0 362.666667 448h298.666666a170.666667 170.666667 0 0 1 170.666667 170.666667v6.186666a149.418667 149.418667 0 0 1-42.666667 292.48 149.333333 149.333333 0 0 1-42.666666-292.48V618.666667a85.333333 85.333333 0 0 0-85.333334-85.333334h-298.666666a169.898667 169.898667 0 0 1-85.333334-22.826666v114.346666a149.418667 149.418667 0 0 1-42.666666 292.48 149.333333 149.333333 0 0 1-42.666667-292.48v-225.706666A149.418667 149.418667 0 0 1 85.333333 256z m704 448a64 64 0 1 0 0 128 64 64 0 0 0 0-128z m-554.666666 0a64 64 0 1 0 0 128 64 64 0 0 0 0-128z" fill="currentColor" p-id="19237"></path>
</svg>
