<svg t="1777302088878" class="icon" viewBox="0 0 1024 1024" version="1.1" xmlns="http://www.w3.org/2000/svg" p-id="3945" width="200" height="200"><path d="M768 597.333333c-76.8 0-145.066667 55.466667-162.133333 128-157.866667-17.066667-285.866667-145.066667-302.933334-302.933333 72.533333-21.333333 128-85.333333 128-162.133333 0-93.866667-76.8-170.666667-170.666666-170.666667S85.333333 162.133333 85.333333 256c0 81.066667 55.466667 145.066667 128 166.4V896c0 25.6 17.066667 42.666667 42.666667 42.666667s42.666667-17.066667 42.666667-42.666667v-256c72.533333 93.866667 179.2 157.866667 302.933333 170.666667 17.066667 72.533333 85.333333 132.266667 166.4 132.266666 93.866667 0 170.666667-76.8 170.666667-170.666666S861.866667 597.333333 768 597.333333zM170.666667 256c0-46.933333 38.4-85.333333 85.333333-85.333333s85.333333 38.4 85.333333 85.333333-38.4 85.333333-85.333333 85.333333-85.333333-38.4-85.333333-85.333333z m597.333333 597.333333c-46.933333 0-85.333333-38.4-85.333333-85.333333s38.4-85.333333 85.333333-85.333333 85.333333 38.4 85.333333 85.333333-38.4 85.333333-85.333333 85.333333z" p-id="3946"></path></svg>
