<?xml version="1.0" standalone="no"?><!DOCTYPE svg PUBLIC "-//W3C//DTD SVG 1.1//EN" "http://www.w3.org/Graphics/SVG/1.1/DTD/svg11.dtd">
<svg t="1764509773158" class="icon" viewBox="0 0 1024 1024" version="1.1"
    xmlns="http://www.w3.org/2000/svg" p-id="20255"
    xmlns:xlink="http://www.w3.org/1999/xlink" width="200" height="200">
    <path d="M310.229 265.771l-47.878 44.458 225.71 225.71h44.458l225.71-225.71-44.458-44.458-170.992 167.573V64h-64.977v369.344L310.229 265.771z m44.458 311.206c6.84 36.478 25.079 66.687 54.718 90.626 29.639 23.939 63.267 35.908 100.885 35.908s71.247-11.969 100.886-35.908c29.639-23.939 49.018-54.148 58.137-90.626h225.71l34.198 30.779v321.466L895.023 960H125.557l-30.779-30.779V607.756l30.779-30.779h229.13z m359.084 61.557c-18.239 38.758-45.598 70.107-82.076 94.046-36.478 23.939-76.947 35.908-121.405 35.908s-84.926-11.969-121.405-35.908c-36.478-23.939-63.837-55.288-82.076-94.046H159.756v256.489h704.489V638.534H713.771z" fill="currentColor" p-id="20256"></path>
</svg>
