<?xml version="1.0" standalone="no"?><!DOCTYPE svg PUBLIC "-//W3C//DTD SVG 1.1//EN" "http://www.w3.org/Graphics/SVG/1.1/DTD/svg11.dtd">
<svg t="1764509519131" class="icon" viewBox="0 0 1024 1024" version="1.1"
    xmlns="http://www.w3.org/2000/svg" p-id="18259"
    xmlns:xlink="http://www.w3.org/1999/xlink" width="200" height="200">
    <path d="M367.431 296.877c16.998-23.373 25.497-50.995 25.497-82.867 2.125-42.496-12.218-78.617-43.027-108.364s-66.4-43.558-106.771-41.433c-31.872 0-60.025 8.499-84.46 25.498s-42.496 39.309-54.182 66.931-14.874 56.307-9.562 86.054c5.312 29.747 18.592 55.245 39.84 76.493s46.745 35.059 76.493 41.433v302.783c-29.747 6.374-55.245 20.185-76.493 41.433-21.248 21.248-34.528 46.745-39.84 76.493-5.312 29.747-2.125 58.432 9.562 86.054s29.747 49.933 54.182 66.931c24.435 16.998 52.057 25.497 82.867 25.497s58.963-8.499 84.46-25.497c25.498-16.998 44.621-39.309 57.369-66.931 6.374-19.123 9.562-39.309 9.562-60.557 0-29.747-8.499-57.369-25.497-82.867-21.248-33.997-52.057-55.245-92.428-63.744V360.621l25.497-6.374c27.622-12.749 49.933-31.872 66.931-57.37zM322.81 768.581c8.499 14.873 12.218 30.278 11.155 46.214-1.062 15.936-6.374 31.341-15.936 46.214-9.562 14.874-22.842 25.498-39.84 31.872-16.998 6.374-33.997 7.968-50.995 4.781s-32.403-11.155-46.214-23.904-21.779-27.622-23.904-44.621c-6.374-27.622-0.531-52.589 17.53-74.899 18.061-22.31 40.902-33.465 68.525-33.465 16.998 0 32.403 4.25 46.214 12.749s24.966 20.186 33.465 35.059zM195.323 287.316c-14.874-10.624-26.029-24.435-33.465-41.433s-9.562-33.997-6.374-50.995 11.155-31.872 23.904-44.621c12.749-12.749 28.154-21.248 46.214-25.498 18.061-4.25 35.59-2.656 52.589 4.781 16.998 7.437 30.278 18.061 39.84 31.872 9.562 13.811 14.874 29.216 15.936 46.214s-2.656 32.934-11.155 47.808c-8.499 14.874-19.654 26.56-33.465 35.059s-29.216 12.749-46.214 12.749-32.937-5.312-47.81-15.936z m615.127 44.62c2.125-19.123-1.062-38.246-9.562-57.369-10.624-27.622-28.685-49.933-54.182-66.931-25.497-16.998-53.12-25.498-82.867-25.498H552.288l76.492-76.493-44.62-41.433L456.672 191.7v41.433L584.16 360.621l44.621-41.433-76.492-76.493H663.84c23.373 0 44.089 8.499 62.15 25.498 18.061 16.998 27.091 38.246 27.091 63.744v331.468c-19.123 4.25-37.184 11.686-54.182 22.31-25.497 16.998-44.089 39.309-55.776 66.931-11.686 27.622-14.342 56.307-7.968 86.054s20.185 55.245 41.433 76.493c21.248 21.248 46.745 35.059 76.492 41.433 29.747 6.374 58.432 3.718 86.054-7.968s49.933-30.278 66.931-55.776c16.998-25.498 25.498-53.12 25.498-82.867 0-40.371-14.874-75.43-44.621-105.177-21.248-21.248-46.745-35.059-76.493-41.433l0.001-331.469z m35.059 541.822c-10.624 10.624-23.373 18.061-38.246 22.31-14.874 4.25-29.216 4.781-43.027 1.594-13.811-3.187-26.56-9.562-38.246-19.123-11.686-9.562-20.717-21.779-27.091-36.653-6.374-14.874-7.968-31.341-4.781-49.401 3.187-18.061 11.155-33.465 23.904-46.214 12.749-12.749 28.154-20.717 46.214-23.904 18.061-3.187 35.59-1.594 52.589 4.781 16.998 6.374 30.81 18.061 41.433 35.059 10.624 16.998 14.874 36.121 12.749 57.369-2.125 21.248-10.624 39.309-25.498 54.182z" fill="currentColor" p-id="18260"></path>
</svg>
