<svg t="1777303636394" class="icon" viewBox="0 0 1024 1024" version="1.1" xmlns="http://www.w3.org/2000/svg" p-id="4100" width="200" height="200"><path d="M938.666667 256c0-93.866667-76.8-170.666667-170.666667-170.666667s-170.666667 76.8-170.666667 170.666667c0 76.8 55.466667 145.066667 128 162.133333-17.066667 157.866667-145.066667 285.866667-302.933333 302.933334-17.066667-59.733333-64-106.666667-119.466667-119.466667V128c0-25.6-17.066667-42.666667-42.666666-42.666667S213.333333 102.4 213.333333 128v473.6c-72.533333 17.066667-128 85.333333-128 166.4 0 93.866667 76.8 170.666667 170.666667 170.666667 81.066667 0 145.066667-55.466667 166.4-128 204.8-17.066667 371.2-183.466667 388.266667-388.266667 72.533333-21.333333 128-85.333333 128-166.4zM256 853.333333c-46.933333 0-85.333333-38.4-85.333333-85.333333s38.4-85.333333 85.333333-85.333333 85.333333 38.4 85.333333 85.333333-38.4 85.333333-85.333333 85.333333zM768 341.333333c-46.933333 0-85.333333-38.4-85.333333-85.333333s38.4-85.333333 85.333333-85.333333 85.333333 38.4 85.333333 85.333333-38.4 85.333333-85.333333 85.333333z" p-id="4101"></path></svg>
