<?xml version="1.0" standalone="no"?>
<!DOCTYPE svg PUBLIC "-//W3C//DTD SVG 1.1//EN" "http://www.w3.org/Graphics/SVG/1.1/DTD/svg11.dtd">
<svg t="1766558051612" class="icon" viewBox="140 110 780 780" version="1.1"
  xmlns="http://www.w3.org/2000/svg" p-id="1645" xmlns:xlink="http://www.w3.org/1999/xlink"
  width="200" height="200">
  <path
    d="M700.567704 151.703704c48.014222 0 86.926222 38.684444 86.926222 86.395259V533.048889c0 1.573926-0.151704 3.128889-0.455111 4.608C838.257778 569.761185 872.296296 626.479407 872.296296 691.086222 872.296296 791.172741 790.660741 872.296296 689.967407 872.296296c-2.616889 0-5.233778-0.056889-7.831703-0.170666l-0.37926 0.056889-2.389333 0.113777H276.555852C228.54163 872.296296 189.62963 833.611852 189.62963 785.901037V238.098963C189.62963 190.388148 228.54163 151.703704 276.555852 151.703704z m0 46.345481h-424.011852a40.163556 40.163556 0 0 0-40.277333 40.049778v547.802074c0 22.110815 18.014815 40.049778 40.277333 40.049778h291.631407a180.261926 180.261926 0 0 1-60.54874-134.864593c0-100.067556 81.635556-181.191111 182.328888-181.191111 17.654519 0 34.740148 2.484148 50.87763 7.149037v-278.945185a40.163556 40.163556 0 0 0-40.277333-40.049778z m-10.600297 358.210371c-74.94163 0-135.68 60.359111-135.68 134.826666 0 74.486519 60.73837 134.864593 135.68 134.864593 74.94163 0 135.68-60.378074 135.68-134.864593 0-74.467556-60.73837-134.826667-135.68-134.826666z m-10.56237 63.393185c7.831704 0 15.530667 2.085926 22.300444 6.068148l63.525926 37.281185a44.676741 44.676741 0 0 1 17.559704 57.818074l-1.630815 3.072-2.066963 3.223704a44.35437 44.35437 0 0 1-13.861926 12.8l-63.525926 37.300148a44.088889 44.088889 0 0 1-60.529777-16.023704 44.73363 44.73363 0 0 1-6.01126-22.433185v-74.581333a44.373333 44.373333 0 0 1 44.240593-44.525037z m2.104889 48.203852v67.20474l57.249185-33.60237-57.249185-33.60237z m-171.747556-221.165037c12.894815 0 23.324444 10.372741 23.324445 23.17274 0 12.8-10.42963 23.172741-23.324445 23.172741h-169.60474c-12.894815 0-23.324444-10.372741-23.324445-23.172741 0-12.8 10.42963-23.172741 23.324445-23.17274z m127.203556-126.426075c12.894815 0 23.324444 10.372741 23.324444 23.172741 0 12.8-10.42963 23.172741-23.324444 23.172741H340.15763c-12.894815 0-23.324444-10.372741-23.324445-23.172741 0-12.8 10.42963-23.172741 23.324445-23.172741z"
    p-id="1646"></path>
</svg>
