<?xml version="1.0" standalone="no"?><!DOCTYPE svg PUBLIC "-//W3C//DTD SVG 1.1//EN" "http://www.w3.org/Graphics/SVG/1.1/DTD/svg11.dtd"><svg t="1767164009885" class="icon" viewBox="0 0 1024 1024" version="1.1" xmlns="http://www.w3.org/2000/svg" p-id="6213" xmlns:xlink="http://www.w3.org/1999/xlink" width="256" height="256"><path d="M352 128a96 96 0 0 1 0 192h-128a96 96 0 0 1 0-192h128z m0 64h-128a32 32 0 0 0 0 64h128a32 32 0 0 0 0-64zM800 704a96 96 0 0 1 0 192h-128a96 96 0 0 1 0-192h128z m0 64h-128a32 32 0 1 0 0 64h128a32 32 0 1 0 0-64z" p-id="6214"></path><path d="M699.584 192a164.416 164.416 0 1 1 0 328.768H340.48a116.416 116.416 0 1 0 0 232.832H512a32 32 0 1 1 0 64H340.416a180.416 180.416 0 0 1 0-360.832h359.168a100.416 100.416 0 0 0 0-200.768H512a32 32 0 0 1 0-64h187.584z" p-id="6215"></path><path d="M448 753.792v74.624a32 32 0 0 0 52.288 24.704l45.504-37.248a32 32 0 0 0 0-49.536l-45.504-37.312a32 32 0 0 0-52.288 24.768z" p-id="6216"></path></svg>