<svg width="200" height="200" viewBox="0 0 200 200" xmlns="http://www.w3.org/2000/svg">
  <defs>
    <radialGradient id="bgGrad" cx="38%" cy="32%" r="70%">
      <stop offset="0%" stop-color="#1e1b4b"/>
      <stop offset="100%" stop-color="#0d0b1e"/>
    </radialGradient>
    <linearGradient id="mainGrad" x1="0%" y1="0%" x2="0%" y2="100%">
      <stop offset="0%" stop-color="#c4b5fd"/>
      <stop offset="100%" stop-color="#7c3aed"/>
    </linearGradient>
    <linearGradient id="featGrad" x1="0%" y1="0%" x2="100%" y2="100%">
      <stop offset="0%" stop-color="#7dd3fc"/>
      <stop offset="100%" stop-color="#0284c7"/>
    </linearGradient>
    <filter id="glow" x="-40%" y="-40%" width="180%" height="180%">
      <feGaussianBlur in="SourceGraphic" stdDeviation="2.5" result="blur"/>
      <feMerge><feMergeNode in="blur"/><feMergeNode in="SourceGraphic"/></feMerge>
    </filter>
    <filter id="softGlow" x="-20%" y="-20%" width="140%" height="140%">
      <feGaussianBlur in="SourceGraphic" stdDeviation="1.5" result="blur"/>
      <feMerge><feMergeNode in="blur"/><feMergeNode in="SourceGraphic"/></feMerge>
    </filter>
  </defs>

  <!-- 背景圆 -->
  <circle cx="100" cy="100" r="96" fill="url(#bgGrad)"/>

  <!-- 同步外弧（上半，代表 sync 循环） -->
  <path d="M 100,20 A 80,80 0 1,1 36,153"
        stroke="rgba(167,139,250,0.18)" stroke-width="4.5" fill="none" stroke-linecap="round"/>
  <!-- 同步外弧（下半） -->
  <path d="M 36,153 A 80,80 0 0,1 164,153"
        stroke="rgba(56,189,248,0.18)" stroke-width="4.5" fill="none" stroke-linecap="round"/>
  <!-- 同步箭头（上） -->
  <path d="M 91,17 L 100,20 L 96,29"
        stroke="rgba(167,139,250,0.55)" stroke-width="2.5" fill="none"
        stroke-linecap="round" stroke-linejoin="round"/>
  <!-- 同步箭头（下） -->
  <path d="M 163,145 L 164,154 L 155,151"
        stroke="rgba(56,189,248,0.55)" stroke-width="2.5" fill="none"
        stroke-linecap="round" stroke-linejoin="round"/>

  <!-- 主分支竖线 -->
  <line x1="76" y1="44" x2="76" y2="156"
        stroke="url(#mainGrad)" stroke-width="5.5" stroke-linecap="round"
        filter="url(#softGlow)"/>

  <!-- 特性分支曲线（分出） -->
  <path d="M 76,80 C 98,80 130,96 130,120 L 130,140"
        stroke="url(#featGrad)" stroke-width="4.5" fill="none"
        stroke-linecap="round" filter="url(#softGlow)"/>
  <!-- 特性分支合并回主分支 -->
  <path d="M 130,140 C 130,156 105,159 76,155"
        stroke="url(#featGrad)" stroke-width="4.5" fill="none" stroke-linecap="round"/>

  <!-- 主分支节点 -->
  <circle cx="76" cy="48"  r="11" fill="#13103a" stroke="#c4b5fd" stroke-width="3" filter="url(#glow)"/>
  <circle cx="76" cy="48"  r="5"  fill="#ddd6fe"/>

  <circle cx="76" cy="84"  r="11" fill="#13103a" stroke="#a78bfa" stroke-width="3"/>
  <circle cx="76" cy="84"  r="5"  fill="#c4b5fd"/>

  <circle cx="76" cy="120" r="11" fill="#13103a" stroke="#8b5cf6" stroke-width="3"/>
  <circle cx="76" cy="120" r="5"  fill="#a78bfa"/>

  <circle cx="76" cy="155" r="11" fill="#13103a" stroke="#7c3aed" stroke-width="3" filter="url(#glow)"/>
  <circle cx="76" cy="155" r="5"  fill="#8b5cf6"/>

  <!-- 特性分支节点 -->
  <circle cx="130" cy="115" r="11" fill="#13103a" stroke="#38bdf8" stroke-width="3" filter="url(#glow)"/>
  <circle cx="130" cy="115" r="5"  fill="#7dd3fc"/>

  <circle cx="130" cy="143" r="11" fill="#13103a" stroke="#0ea5e9" stroke-width="3" filter="url(#glow)"/>
  <circle cx="130" cy="143" r="5"  fill="#38bdf8"/>
</svg>
