<svg width="200" height="200" viewBox="0 0 200 200" xmlns="http://www.w3.org/2000/svg">
  <!-- 主分支 -->
  <line x1="40" y1="40" x2="40" y2="160" stroke="#34495e" stroke-width="8" stroke-linecap="round" />
  
  <!-- 特性分支 -->
  <path d="M40,70 C60,70 80,90 80,110 L80,130" stroke="#3498db" stroke-width="8" stroke-linecap="round" stroke-linejoin="round" fill="none" />
  
  <!-- 开发分支 -->
  <path d="M40,100 C60,100 100,110 100,130 L100,160" stroke="#2ecc71" stroke-width="8" stroke-linecap="round" stroke-linejoin="round" fill="none" />
  
  <!-- 修复分支 -->
  <path d="M40,130 C60,130 120,140 120,160" stroke="#e74c3c" stroke-width="8" stroke-linecap="round" stroke-linejoin="round" fill="none" />
  
  <!-- 合并点 -->
  <path d="M80,130 C80,145 60,145 40,145" stroke="#3498db" stroke-width="8" stroke-linecap="round" stroke-linejoin="round" fill="none" />
  
  <!-- 节点 -->
  <circle cx="40" cy="40" r="10" fill="#34495e" />
  <circle cx="40" cy="70" r="10" fill="#34495e" />
  <circle cx="40" cy="100" r="10" fill="#34495e" />
  <circle cx="40" cy="130" r="10" fill="#34495e" />
  <circle cx="40" cy="145" r="10" fill="#34495e" />
  <circle cx="40" cy="160" r="10" fill="#34495e" />
  <circle cx="80" cy="130" r="10" fill="#3498db" />
  <circle cx="100" cy="160" r="10" fill="#2ecc71" />
  <circle cx="120" cy="160" r="10" fill="#e74c3c" />
</svg>